<svg xmlns="http://www.w3.org/2000/svg" xmlns:xlink="http://www.w3.org/1999/xlink" version="1.1" id="Layer_1" x="0px" y="0px" viewBox="0 0 1080 1080" style="enable-background:new 0 0 1080 1080;" xml:space="preserve">
<style type="text/css">
	.st0{fill:#0B4870;}
	.st1{fill:#05212D;}
	.st2{fill:#07334C;}
	.st3{opacity:0.7;fill:none;stroke:#F7F7F7;stroke-miterlimit:10;}
	.st4{fill:#F7F7F7;}
	.st5{fill:#D3D3D3;}
	.st6{fill:#E5E5E5;}
	.st7{fill:#1B6087;}
	.st8{fill:#2A7596;}
	.st9{fill:#0A3B56;}
	.st10{fill:#FFBE55;}
	.st11{fill:#063B60;}
	.st12{fill:#F7BE97;}
	.st13{fill:#FCD2B1;}
	.st14{fill:#F2A638;}
</style>
<g>
	<g>
		<path class="st0" d="M1024.8,641.7c-34.1,54-85.3,94.1-136.5,131.4c-13.3,9.6-26.6,19.2-40.1,28.6c-27.7,19.3-55.8,38-84.5,55.6    c-0.1,0.1-0.2,0.1-0.3,0.2c-58.2,35.9-118.7,67.7-182.1,92.2c-10.6,4.1-21.3,8-32.1,11.7c-53.5,18.2-109.3,30.8-165.6,35.8    c-2,0.2-4,0.4-6.1,0.5c-5.6,0.4-11.1,0.8-16.7,1.1c-31.2,1.7-62.5,0.9-93.5-2.5c-16.1-1.8-32-4.3-47.9-7.6    c-11.5-2.4-22.9-5.2-34.2-8.4c-5.6-1.6-11.3-3.3-16.9-5.1c-0.3-0.1-0.6-0.2-0.9-0.3c-53.1-17.4-109-52.1-117.6-108.3    c-6.4-41.8,15.2-79.8,43.1-113.2c10.7-12.7,22.3-24.8,33.6-36.1c40.9-40.9,85.1-92.3,74.9-149.9C188,490.8,86.7,456.3,72.5,379.8    c-11.1-60,36.6-113.3,82.5-152.4c61.9-52.8,253.2-145.1,253.2-145.1C509,30,628.5,16.5,738,45.1c55.2,14.4,111.8,43.1,136.2,95.7    c20.6,44.5,14.1,97.8,32.5,143.3c28.3,69.9,108,105.8,139.7,174.2C1073.2,516.5,1058.9,587.7,1024.8,641.7z"/>
	</g>
	<polygon class="st1" points="400.1,665.4 387.6,731.4 412.6,731.4  "/>
	<polygon class="st1" points="412.1,681.4 404.6,735.4 419.6,735.4  "/>
	<path class="st2" d="M763.8,857.3c-0.1,0.1-0.2,0.1-0.3,0.2c-58.2,35.9-118.7,67.7-182.1,92.2c-10.6,4.1-21.3,8-32.1,11.7   c-53.5,18.2-109.3,30.8-165.6,35.8c-2,0.2-4,0.4-6.1,0.5c-36.8,2.9-73.7,2.6-110.1-1.4c-61.2-17.5-110.9-40.6-110.9-83.8   c0-92.8,182.7-210,334-210C634.7,702.4,752.9,770.7,763.8,857.3z"/>
	<circle class="st3" cx="554.6" cy="330.4" r="245"/>
	<circle class="st4" cx="554.6" cy="330.4" r="217"/>
	<ellipse transform="matrix(0.8215 -0.5702 0.5702 0.8215 -6.4109 414.3583)" class="st5" cx="658.6" cy="217.4" rx="48" ry="60"/>
	<circle class="st6" cx="632.1" cy="287.9" r="13.5"/>
	<ellipse transform="matrix(0.9772 -0.2124 0.2124 0.9772 -65.7 92.1398)" class="st6" cx="396.1" cy="351.9" rx="42.5" ry="51.5"/>
	<circle class="st5" cx="423.1" cy="444.9" r="20.5"/>
	
		<ellipse transform="matrix(0.8215 -0.5702 0.5702 0.8215 -148.2892 445.0547)" class="st5" cx="636.7" cy="459.4" rx="69.5" ry="49.6"/>
	<circle class="st5" cx="593.1" cy="383.9" r="20.5"/>
	<circle class="st6" cx="530.1" cy="392.9" r="15.5"/>
	<circle class="st6" cx="485.1" cy="201.9" r="23.5"/>
	<polygon class="st1" points="677.1,727.4 664.6,793.4 689.6,793.4  "/>
	<polygon class="st1" points="692.6,745.4 683.6,793.4 701.6,793.4  "/>
	<path class="st7" d="M581.4,949.7c-10.6,4.1-21.3,8-32.1,11.7c-47.7,16.3-97.4,28-147.6,33.9c-8,1-16,1.8-24,2.4h-0.1   c-15.2,1.2-30.5,1.9-45.7,1.9c-12.1,0-24.1-0.3-36.2-1c-1.2-0.1-2.5-0.1-3.7-0.2c-1.1-0.1-2.3-0.2-3.4-0.2c-1-0.1-2-0.1-2.9-0.2   c-7.7-0.6-15.3-1.3-22.9-2.3c-17.7-2.1-35.3-5.2-52.8-9.1c-0.3-0.1-0.6-0.2-1-0.2c-13.6-3.1-27.1-6.8-40.4-11.1   C115.1,957.9,58.6,923.1,50,866.6c-6.4-41.8,15.2-79.8,43.1-113.2c45.7-16.6,97.3-26,152-26c111.6,0,210.6,39,272,99.1   C552.9,861.6,576,903.8,581.4,949.7z"/>
	<path class="st8" d="M848.2,801.7c-84,58.5-172.1,111.4-266.8,148c-10.6,4.1-21.3,8-32.1,11.7c-55.4,18.9-113.4,31.6-171.6,36.3   c10.7-70.5,63.3-131.9,139.5-171.1c55.2-28.4,122.9-45.1,196-45.1C761.1,781.4,806.8,788.6,848.2,801.7z"/>
	<polygon class="st9" points="823.2,716.5 809.8,808.4 836.6,808.4  "/>
	<polygon class="st9" points="482.7,854.4 473.8,915.4 491.6,915.4  "/>
	<polygon class="st9" points="497.7,875.4 490.8,915.4 504.6,915.4  "/>
	<polygon class="st9" points="183.3,685.4 174.8,743.4 191.7,743.4  "/>
	<polygon class="st9" points="204.7,655.4 191.8,743.4 217.6,743.4  "/>
	<polygon class="st9" points="806.1,758.4 793.6,808.4 818.6,808.4  "/>
	<circle class="st10" cx="860.1" cy="404.9" r="23.5"/>
	<circle class="st10" cx="728.1" cy="559.9" r="11.5"/>
	<circle class="st10" cx="276.1" cy="496.9" r="31.5"/>
	<circle class="st10" cx="262.6" cy="250.4" r="16"/>
	<path class="st11" d="M401.7,995.3c-8,1-16,1.8-24,2.4h-0.1c-15.2,1.2-30.5,1.9-45.7,1.9c-12.1,0-24.1-0.3-36.2-1   c-1.2-0.1-2.5-0.1-3.7-0.2l-6.4-9.7l-28.7-43.6c2.4-0.7,4.8-1.5,7.3-2.3h0c5.2-1.6,10.4-3.2,15.4-4.8c22.3-7,46.6-2.5,64.9,12   L401.7,995.3z"/>
	<path class="st0" d="M377.6,997.7c-15.2,1.2-30.5,1.9-45.7,1.9c-12.1,0-24.1-0.3-36.2-1c-1.2-0.1-2.5-0.1-3.7-0.2   c-1.1-0.1-2.3-0.2-3.4-0.2l-2.9-9.4L271.4,943c0,0,0,0,0,0l11.3-1.1c25-2.4,49.6,7,66.7,25.4L377.6,997.7z"/>
	<path class="st12" d="M249.1,814.5c-0.4,5.1,3.5,19.2,3.5,19.2s-22.6,3.7-25-1c-2.4-4.7-2.4-16-2.4-16s11-6,11.6-6   C237.3,810.7,249.1,814.5,249.1,814.5z"/>
	<path class="st10" d="M289.1,948.2l-74.2,0.6c-0.6-0.5-1.1-1.1-1.7-2l-9-59.3c0,0-4,23-9,48.3c-3.1,15.6-3,30.4,4.4,48.9   c-5.6-1.6-17.5-5.3-17.8-5.4c-7.1-12.7-10.3-32-8.3-48.6c4.9-39,10-82.1,15.8-86.1c8.3-5.8,29.8-14.4,37.1-17.3   c9.5,3.4,16.6,0.5,24.1-1.9c7.1,3.8,22,10.7,33.6,13.2C284.3,838.7,275.4,941.7,289.1,948.2z"/>
	<path class="st13" d="M262.9,785.8c2.8,13.7,2.8,24-4.9,25.6c-7.7,1.6-21.1-6.6-24-20.2c-2.8-13.7,1.4-26.6,9.1-28.2   C250.9,761.4,260,772.1,262.9,785.8z"/>
	<path class="st0" d="M252.2,758.4c9.1,9,4.6,15.9,0.2,19.5c-4.4,3.7,4,29.5-1.9,35.1s-25.8,24.5-41.8,2.2s-8.4-46.3-0.6-54.1   C215.8,753.4,240.8,742.2,252.2,758.4z"/>
	
		<ellipse transform="matrix(0.7202 -0.6938 0.6938 0.7202 -477.7269 392.44)" class="st13" cx="247.7" cy="788.5" rx="5.9" ry="8.3"/>
	<path class="st0" d="M304.8,981.5c-0.5,7.1-3.9,12.7-9.1,17.2c-1.2-0.1-2.5-0.1-3.7-0.2c-1.1-0.1-2.3-0.2-3.4-0.2   c-26.5-1.9-52.7-5.7-78.6-11.6c-2.9-15.1-1.3-33.5,2.9-42.9c0,0,28.9-0.8,51.4-0.8h0c2.5,0,4.9,0,7.2,0c0,0,0,0,0,0   c6.9,0.1,12.6,0.3,15.9,0.7C301.5,945.5,307.2,948.8,304.8,981.5z"/>
	<path class="st14" d="M276.9,948.4l8.7,49.6c-7.7-0.6-15.3-1.3-22.9-2.3c-4.3-16.1-11.1-41.6-11.1-44.1c0-3.7,18-110.5,32.7-113   c0,0,0,0,0,0c4.5,1.8,8.8,3.2,12.4,4c0.1,0.2,0.3,0.3,0.4,0.5c1,1.4,1.8,3.7,2.6,6.8c3,11.4,2.5,23.5-1.1,34.7   C289.3,913.4,276.9,948.4,276.9,948.4z"/>
</g>
</svg>