<svg xmlns="http://www.w3.org/2000/svg" viewBox="0 0 688.5 273.5"><defs><style>.cls-1,.cls-18,.cls-19,.cls-20,.cls-21{fill:none;stroke-linecap:round;stroke-linejoin:round;}.cls-1{stroke:#dbeaf2;stroke-width:3px;}.cls-2{fill:#9b9b9b;}.cls-3{fill:#ffc370;}.cls-4{fill:#e0854f;}.cls-5{fill:#bd9cff;}.cls-6{fill:#d1ffb0;}.cls-7{fill:#b299ff;}.cls-8{fill:#e2e2e2;}.cls-9{fill:#7f7f7f;}.cls-10{fill:#c97ec0;}.cls-11{fill:#00c3bb;}.cls-12{fill:#00d8d4;}.cls-13{opacity:0.08;}.cls-14,.cls-17{opacity:0.5;}.cls-15,.cls-17{fill:#fff;}.cls-16{opacity:0.15;}.cls-18{stroke:#333;}.cls-18,.cls-19{stroke-width:4px;}.cls-19,.cls-20{stroke:#48395e;}.cls-20,.cls-21{stroke-width:2px;}.cls-21{stroke:#18301e;}</style></defs><title>tent</title><g id="trees"><line class="cls-1" x1="548.5" y1="271.5" x2="548.5" y2="101.5"/><line class="cls-1" x1="548.5" y1="101.5" x2="526.63" y2="123.38"/><line class="cls-1" x1="548.5" y1="141.5" x2="516.74" y2="173.26"/><line class="cls-1" x1="548.5" y1="191.5" x2="523.37" y2="216.63"/><line class="cls-1" x1="548.5" y1="101.5" x2="570.37" y2="123.38"/><line class="cls-1" x1="548.5" y1="141.5" x2="580.26" y2="173.26"/><line class="cls-1" x1="548.5" y1="191.5" x2="573.62" y2="216.63"/><line class="cls-1" x1="428.5" y1="114.2" x2="428.5" y2="1.5"/><line class="cls-1" x1="428.5" y1="1.5" x2="406.63" y2="23.38"/><line class="cls-1" x1="428.5" y1="41.5" x2="396.74" y2="73.26"/><line class="cls-1" x1="428.5" y1="81.5" x2="410.41" y2="99.59"/><line class="cls-1" x1="428.5" y1="1.5" x2="450.37" y2="23.38"/><line class="cls-1" x1="428.5" y1="41.5" x2="460.26" y2="73.26"/><line class="cls-1" x1="428.5" y1="81.5" x2="453.62" y2="106.63"/><line class="cls-1" x1="248.5" y1="91.97" x2="248.5" y2="22.5"/><line class="cls-1" x1="248.5" y1="22.5" x2="226.63" y2="44.38"/><line class="cls-1" x1="248.5" y1="62.5" x2="226.62" y2="84.38"/><line class="cls-1" x1="248.5" y1="22.5" x2="270.37" y2="44.38"/><line class="cls-1" x1="248.5" y1="62.5" x2="268.29" y2="82.29"/><line class="cls-1" x1="108.5" y1="225.43" x2="108.5" y2="94.5"/><line class="cls-1" x1="108.5" y1="94.5" x2="93.72" y2="109.28"/><line class="cls-1" x1="108.5" y1="124.5" x2="83.37" y2="149.63"/><line class="cls-1" x1="108.5" y1="94.5" x2="123.28" y2="109.28"/><line class="cls-1" x1="108.5" y1="124.5" x2="133.62" y2="149.63"/><line class="cls-1" x1="108.5" y1="164.5" x2="83.37" y2="189.63"/><line class="cls-1" x1="108.5" y1="164.5" x2="133.62" y2="189.63"/><polyline class="cls-1" points="175.5 65.19 185.5 75.19 195.5 65.19"/><polyline class="cls-1" points="161.5 78.19 167.5 84.19 173.5 78.19"/><polyline class="cls-1" points="514.5 13.94 524.5 23.94 534.5 13.94"/><polyline class="cls-1" points="493.5 32.94 499.5 38.94 505.5 32.94"/><polyline class="cls-1" points="508.5 49.94 512.5 53.94 516.5 49.94"/></g><g id="tent"><g id="color"><path class="cls-2" d="M736.5,484H704c.62-5.35-2.07-9.94-5.86-13.63C704,467,718,464.5,724,466.5S736.5,479.5,736.5,484Z" transform="translate(-69.5 -212.5)"/><path class="cls-2" d="M698.14,470.37c3.79,3.69,6.48,8.28,5.86,13.63H649a43.54,43.54,0,0,1,6.07-12h0c2-2.74,4.22-5,6.42-6,5.17-2.45,14-7.5,20-5.5,3.53,1.18,11.21,4.6,16.63,9.87Z" transform="translate(-69.5 -212.5)"/><path class="cls-2" d="M655.07,472A43.54,43.54,0,0,0,649,484H618c0-4.5,2-10,8-15S650.48,470.49,655.07,472Z" transform="translate(-69.5 -212.5)"/><path class="cls-3" d="M600.81,460a4,4,0,0,1,2.94,3.85,4,4,0,0,1-3.9,4h-14.3a4,4,0,0,1-.7-7.89,4.43,4.43,0,0,1,.9-.1h14A3.67,3.67,0,0,1,600.81,460Z" transform="translate(-69.5 -212.5)"/><path class="cls-4" d="M601.75,450.5c0,1.18-.4,4.93-.94,9.51a3.67,3.67,0,0,0-1.06-.15h-14a4.43,4.43,0,0,0-.9.1l-.36-4h0l-.49-5.4C587.75,447,600.75,447.75,601.75,450.5Z" transform="translate(-69.5 -212.5)"/><path class="cls-3" d="M601.75,471.86a4,4,0,0,1-2.91,3.85,3.88,3.88,0,0,1-1.09.15h-10a4,4,0,0,1-4-4,4,4,0,0,1,1.86-3.38,4,4,0,0,1,2.14-.62h10a4,4,0,0,1,4,4Z" transform="translate(-69.5 -212.5)"/><path class="cls-4" d="M599.85,467.86c0,.18-.05.37-.07.55a4,4,0,0,0-2-.55h2.1Z" transform="translate(-69.5 -212.5)"/><path class="cls-4" d="M597.75,475.86a3.88,3.88,0,0,0,1.09-.15c-.62,4.77-1.09,8.29-1.09,8.29H587l-.76-8.44a4,4,0,0,0,1.51.3Z" transform="translate(-69.5 -212.5)"/><path class="cls-4" d="M585.75,467.86h2a4,4,0,0,0-2.14.62l-.06-.63Z" transform="translate(-69.5 -212.5)"/><path class="cls-3" d="M584.49,455.91l.36,4a4,4,0,0,0-1.93,1.07,4,4,0,0,0-1.17,2.83L554.1,420a214.56,214.56,0,0,0-22.4-51.64l.16-.09,52.63,87.67Z" transform="translate(-69.5 -212.5)"/><path class="cls-5" d="M239.09,399q2.06-5.13,4.35-10.1C272.2,326.4,328.39,284,393,284c57.25,0,107.89,33.29,138.7,84.32A214.56,214.56,0,0,1,554.1,420a232.14,232.14,0,0,1,8.9,64H519.17c7.83,0,17.16-5.38,15.83-8.44s-11.5-3.7-19,8.44c7.5-12.14,10.67-27.83,7.67-30.67s-17.84,15.5-14.84,30.67c-2-12-9.66-17.05-13.16-16.86S497,484,504.5,484H482.14a90.1,90.1,0,0,0-18.36-90.64,6,6,0,1,0-8.65-8.29A90,90,0,0,0,312.4,484H275.11c6.5,0,10.1-5.83,9.6-9.83C282.17,473,274,478,269.5,484c4.47-6,6-25.5-1.33-29.67-7.17,5-7.5,22.5-4.67,29.67-2-3.83-7.5-14.33-10.67,0-1-8.5-10.6-14.5-14.55-13.83-1.11,5.33,1.22,13.83,7.89,13.83H223a230.23,230.23,0,0,1,13.06-77C237,404.29,238,401.6,239.09,399Z" transform="translate(-69.5 -212.5)"/><path class="cls-6" d="M535,475.56c1.33,3.06-8,8.44-15.83,8.44H516C523.5,471.86,533.67,472.5,535,475.56Z" transform="translate(-69.5 -212.5)"/><path class="cls-6" d="M523.67,453.33c3,2.84-.17,18.53-7.67,30.67h-7.17C505.83,468.83,520.67,450.5,523.67,453.33Z" transform="translate(-69.5 -212.5)"/><path class="cls-6" d="M508.83,484H504.5c-7.5,0-12.33-16.67-8.83-16.86S506.83,472,508.83,484Z" transform="translate(-69.5 -212.5)"/><path class="cls-5" d="M487.27,454a89.5,89.5,0,0,1-5.13,30H426.67l1.13,0c36.5-1.21,55.52-61,35.55-90.24a5.3,5.3,0,0,0,.43-.38A89.66,89.66,0,0,1,487.27,454Z" transform="translate(-69.5 -212.5)"/><path class="cls-7" d="M463.35,393.74c20,29.28.95,89-35.55,90.24,11.26-.43,18.54-7.2,18.86-15.42,0-.19,0-.37,0-.56a10,10,0,0,0-13.9-9.21c18.89-8.83,43.42-42.88,30.42-64.93Z" transform="translate(-69.5 -212.5)"/><path class="cls-3" d="M459.59,383.07a6,6,0,0,1,4.19,10.29,5.3,5.3,0,0,1-.43.38l-.16.12a6,6,0,0,1-3.6,1.21h0a6,6,0,0,1,0-12Z" transform="translate(-69.5 -212.5)"/><path class="cls-7" d="M463.19,393.86c13,22.05-11.53,56.1-30.42,64.93l-.17.08a10,10,0,0,0-5.93,9.13c0,.34,0,.68.05,1a89.45,89.45,0,0,0,15.33-9.43,10,10,0,0,1,4.62,8.42c0,.19,0,.37,0,.56-.32,8.22-7.6,15-18.86,15.42l-1.13,0H386.4a8,8,0,0,0,8-8V458a8,8,0,0,0-8-8h-34a8,8,0,0,0-8,8v18a8,8,0,0,0,8,8h-40a90,90,0,0,1,142.73-98.93,6,6,0,0,0,1.14,9l-6.77,10.15a2,2,0,0,0,1.07,3l6.34,1.93a2,2,0,0,0,2.58-1.89l.06-12.2h0A6,6,0,0,0,463.19,393.86Z" transform="translate(-69.5 -212.5)"/><path class="cls-3" d="M459.55,395.07l-.06,12.2a2,2,0,0,1-2.58,1.89l-6.34-1.93a2,2,0,0,1-1.07-3l6.77-10.15A6,6,0,0,0,459.55,395.07Z" transform="translate(-69.5 -212.5)"/><path class="cls-7" d="M436.67,458a9.9,9.9,0,0,1,5.38,1.58A89.45,89.45,0,0,1,426.72,469c0-.33-.05-.67-.05-1a10,10,0,0,1,5.93-9.13l.17-.08A9.92,9.92,0,0,1,436.67,458Z" transform="translate(-69.5 -212.5)"/><path class="cls-3" d="M398,276a4,4,0,1,1,0,8H388a4,4,0,1,1,0-8Z" transform="translate(-69.5 -212.5)"/><path class="cls-8" d="M394.4,458v18a8,8,0,0,1-8,8h-34a8,8,0,0,1-8-8V458a8,8,0,0,1,8-8h34A8,8,0,0,1,394.4,458Zm-7,9a10,10,0,1,0-10,10A10,10,0,0,0,387.4,467Zm-28,6a4,4,0,1,0-4,4A4,4,0,0,0,359.4,473Z" transform="translate(-69.5 -212.5)"/><circle class="cls-9" cx="307.9" cy="254.5" r="10"/><circle class="cls-9" cx="285.9" cy="260.5" r="4"/><path class="cls-6" d="M284.71,474.17c.5,4-3.1,9.83-9.6,9.83H269.5C274,478,282.17,473,284.71,474.17Z" transform="translate(-69.5 -212.5)"/><path class="cls-6" d="M268.17,454.33C275.5,458.5,274,478,269.5,484h-6C260.67,476.83,261,459.33,268.17,454.33Z" transform="translate(-69.5 -212.5)"/><path class="cls-6" d="M263.5,484H252.83C256,469.67,261.5,480.17,263.5,484Z" transform="translate(-69.5 -212.5)"/><path class="cls-6" d="M252.83,484h-6.66c-6.67,0-9-8.5-7.89-13.83C242.23,469.5,251.83,475.5,252.83,484Z" transform="translate(-69.5 -212.5)"/><path class="cls-10" d="M231.32,389.11a25,25,0,0,1-35.16,3.63A24.61,24.61,0,0,1,191,387a25,25,0,0,1,1.54-29.42,30,30,0,1,1,46.55,37.85,5,5,0,0,1-7.76-6.31Z" transform="translate(-69.5 -212.5)"/><path class="cls-5" d="M243.2,388.74l.24.11q-2.3,5-4.35,10.1c-6.81-1.38-15.52-2.11-23.06-.62L216,398a24.91,24.91,0,0,0,15.35-8.9,5,5,0,0,0,7.76,6.31A30.12,30.12,0,0,0,243.2,388.74Z" transform="translate(-69.5 -212.5)"/><path class="cls-11" d="M239.09,399c-1.06,2.65-2.07,5.34-3,8.05-15.33-4.35-27.55-.37-36.78,7.71.86-10,8-14.68,16.75-16.38C223.57,396.84,232.28,397.57,239.09,399Z" transform="translate(-69.5 -212.5)"/><path class="cls-12" d="M236.06,407A230.23,230.23,0,0,0,223,484H182c-6.57-6.57-6-28.41,2.13-47.44a69.5,69.5,0,0,1,7.77-13.75,50.41,50.41,0,0,1,7.38-8.09h0C208.51,406.63,220.73,402.65,236.06,407ZM218,448a4,4,0,0,0-3.23-4.87l-15.23-2.57a4,4,0,0,0-4.65,3.55l-2.2,21.93a4,4,0,0,0,3.31,4.35l12.34,2.08a4,4,0,0,0,4.56-3Z" transform="translate(-69.5 -212.5)"/><path class="cls-11" d="M214.73,443.16A4,4,0,0,1,218,448l-5.1,21.45a4,4,0,0,1-4.56,3L196,470.42a4,4,0,0,1-3.31-4.35l2.2-21.93a4,4,0,0,1,4.65-3.55Z" transform="translate(-69.5 -212.5)"/><path class="cls-11" d="M183.58,436.33l.55.23c-8.16,19-8.7,40.87-2.13,47.44H162.16c-8.07-12.95.74-33.31,11.12-42.67C176.73,438.22,180.35,436.33,183.58,436.33Z" transform="translate(-69.5 -212.5)"/><path class="cls-3" d="M183.82,435.79l-.24.54c-3.23,0-6.85,1.89-10.3,5a6,6,0,1,1,10.54-5.54Z" transform="translate(-69.5 -212.5)"/><path class="cls-6" d="M140.75,468.25c2.35,3-4,15.75-17,15.75h-2.5c0-.29,0-.6.07-.91C122.42,475.11,137.38,463.92,140.75,468.25Z" transform="translate(-69.5 -212.5)"/><path class="cls-6" d="M112,450.67c4.87-1.14,10,20.95,9.32,32.42a5.67,5.67,0,0,0-.07.91H114.5a15,15,0,0,0-1.55-2.23C107.6,472.35,107.41,451.74,112,450.67Z" transform="translate(-69.5 -212.5)"/><path class="cls-3" d="M121.32,483.09c0,.31,0,.62-.07.91A5.67,5.67,0,0,1,121.32,483.09Z" transform="translate(-69.5 -212.5)"/><path class="cls-6" d="M114.5,484h-4.67c-7.83,0-13-6.17-10.5-8.83,2.17-2.31,9.66,1.84,13.62,6.6A13.69,13.69,0,0,0,114.5,484Z" transform="translate(-69.5 -212.5)"/><path class="cls-3" d="M113,481.77A15,15,0,0,1,114.5,484,13.69,13.69,0,0,1,113,481.77Z" transform="translate(-69.5 -212.5)"/></g><g id="shadows"><path class="cls-13" d="M284.71,474.17C282.17,473,274,478,269.5,484c4.47-6,6-25.5-1.33-29.67-7.17,5-7.5,22.5-4.67,29.67-2-3.83-7.5-14.33-10.67,0-1-8.5-10.6-14.5-14.55-13.83-1.11,5.33,1.22,13.83,7.89,13.83H224c0-46,10.7-72.82,10.7-72.82.42,17.14,30.69,31.56,70.91,38.38,0,0,1.72,26.44,6.9,34.44h-37.4C281.61,484,285.21,478.17,284.71,474.17Z" transform="translate(-69.5 -212.5)"/><path class="cls-13" d="M535,475.56c-1.33-3.06-11.5-3.7-19,8.44,7.5-12.14,10.67-27.83,7.67-30.67s-17.84,15.5-14.84,30.67c-2-12-9.66-17-13.16-16.86S497,484,504.5,484H482.14c5.13-22.34,6.82-45.13-2-65.37,22.11-19.2,33.09-47.23,23.52-86.4C532.5,356,563,419.5,563,484H519.17C527,484,536.33,478.62,535,475.56Z" transform="translate(-69.5 -212.5)"/><path class="cls-13" d="M307.61,454.56a304.48,304.48,0,0,0,35.93,3.84c7,.34-1.38,20.85,5.16,23.63,3.08,1.31,41,1.14,43.63-.52,7.09-4.43-6.19-23.79,2.07-24.77,21.44-2.55,42.16-7.6,60-15.67,0,0-13.84,13-22.08,16.94,3.85-.42-7.48,6.88-5.23,10.63.53.89,15-9.74,15.83-9,7.91,6.58-.66,24.53-13.37,24.42H312.4C308.86,478.38,308.85,472,307.61,454.56Z" transform="translate(-69.5 -212.5)"/><g class="cls-14"><path class="cls-15" d="M108.74,478.75c-5-2.62-9.62-1.25-3.3,4.56C93.25,474.38,102.35,472,108.74,478.75Z" transform="translate(-69.5 -212.5)"/><path class="cls-15" d="M115.06,482.89c-6.81-16-3.31-30.76,1-24-.69-11.62-9.61-9.22-7.15,7.39S115.06,482.89,115.06,482.89Z" transform="translate(-69.5 -212.5)"/><path class="cls-15" d="M122.25,482.89c3.88-10.38,19.38-21.77,17.5-10.33C138.38,469.25,129.63,473.27,122.25,482.89Z" transform="translate(-69.5 -212.5)"/><path class="cls-15" d="M503.71,475.15c-3.72-4.24-8.54-4.61-4.72,3.08C490.81,465.52,500.16,466.56,503.71,475.15Z" transform="translate(-69.5 -212.5)"/><path class="cls-15" d="M510.42,476.92c3.08-10.33,11.44-22.57,12.06-14.58,4.88-10.57-4.12-12.66-9.79,3.15S510.42,476.92,510.42,476.92Z" transform="translate(-69.5 -212.5)"/><path class="cls-15" d="M514.57,484.15c6.51-9,24.48-15.81,19.62-5.28C533.75,475.31,524.24,476.85,514.57,484.15Z" transform="translate(-69.5 -212.5)"/><path class="cls-15" d="M242.5,482.15c-3.12-6.52-.28-9.64,2.92-8.15C239.76,470.19,234.13,470.05,242.5,482.15Z" transform="translate(-69.5 -212.5)"/><path class="cls-15" d="M257.13,483v-7s-3.5,5.5-2.5,8A4.26,4.26,0,0,0,257.13,483Z" transform="translate(-69.5 -212.5)"/><path class="cls-15" d="M263.5,479c-.62-10.37,3.63-16.19,4.75-17.34,1.63,1.09,3.63,4.25,3.63,8.67.38-12.2-3.71-16-3.71-16S258.13,470.62,263.5,479Z" transform="translate(-69.5 -212.5)"/></g><path class="cls-16" d="M159,470.12c.24,9.76,14.36,10.51,17.49-12.12-1,12.88,5.5,26,5.5,26H161.13Z" transform="translate(-69.5 -212.5)"/><ellipse class="cls-17" cx="170.97" cy="453.12" rx="8.7" ry="2.83" transform="translate(-377.22 167.15) rotate(-60.6)"/><ellipse class="cls-17" cx="164.31" cy="462.41" rx="1.41" ry="0.75" transform="translate(-395.06 220.95) rotate(-67.06)"/><path class="cls-16" d="M221.62,450.65,216,474a4,4,0,0,1-4.56,3l-16.13-2.92a4,4,0,0,1-3.29-3.46,4,4,0,0,0,1.29.46L209.44,474a4,4,0,0,0,4.56-3l5.62-23.33a3.92,3.92,0,0,0,.08-1.4A4,4,0,0,1,221.62,450.65Z" transform="translate(-69.5 -212.5)"/><path class="cls-17" d="M218.76,447.71l-.24,0-15.23-2.57c-3.54-.48-4.37.19-4.65,3.55l-3.2,21.93c0,.45,1,.89,1.08,1.3a4,4,0,0,1-3.08-4.3l2.2-21.93a4,4,0,0,1,4.65-3.55l15.23,2.57A4,4,0,0,1,218.76,447.71Z" transform="translate(-69.5 -212.5)"/><path class="cls-17" d="M234.7,411.18c-42.81-9.05-59.87,48.4-54.13,71-10.74-17.54,6.4-89.09,55.49-75.15Z" transform="translate(-69.5 -212.5)"/><ellipse class="cls-17" cx="202.52" cy="422.12" rx="4.54" ry="1.57" transform="translate(-308.8 54.72) rotate(-45.05)"/><path class="cls-17" d="M206.09,409.86c-.74-2,2.8-10,7.31-10.91-14.4,8.18-14.12,15.68-14.12,15.68Z" transform="translate(-69.5 -212.5)"/><path class="cls-16" d="M231.91,365A19.38,19.38,0,0,0,229,362,20,20,0,0,0,200.85,365a15,15,0,0,0,2.17,21.1,5.32,5.32,0,0,0,.47.36,15,15,0,0,1,.36-18.46A20,20,0,0,1,231.91,365Z" transform="translate(-69.5 -212.5)"/><path class="cls-17" d="M238.5,356.87a31.06,31.06,0,0,0-3.77-3.65,30,30,0,0,0-42.2,4.35,25,25,0,0,0,3.26,34.86,25,25,0,0,1-.26-31.86,30,30,0,0,1,42.2-4.35Z" transform="translate(-69.5 -212.5)"/><path class="cls-17" d="M231.35,362.74a20,20,0,0,1,0,25.2,5,5,0,0,0,2.18,7.86,5,5,0,0,1,.82-4.86,20,20,0,0,0-2.9-28.14Z" transform="translate(-69.5 -212.5)"/><path class="cls-17" d="M223.68,368.45a11.22,11.22,0,0,1-.74,13.12,16.81,16.81,0,0,1-23.13,2.85,16.42,16.42,0,0,0,2.84,3,16.83,16.83,0,0,0,23.66-2.44,11.22,11.22,0,0,0-1.62-15.77A11.72,11.72,0,0,0,223.68,368.45Z" transform="translate(-69.5 -212.5)"/><path class="cls-17" d="M224.81,370.38a9.85,9.85,0,0,0-1.7-1.78A10,10,0,0,0,209,370.05a5,5,0,0,0,.72,7,5.57,5.57,0,0,0,.78.52,5,5,0,0,1,.5-5.56A10,10,0,0,1,224.81,370.38Z" transform="translate(-69.5 -212.5)"/><path class="cls-16" d="M178.44,456.18c-1,6.08,5.53,11,14.07,12.53,3.32.6,14.39,4.08,18,3.54s-.29-5.08,2.92-7c7.72-4.64,13.37-13.69,12.41-28.91C224.79,454.9,223,484,223,484H182C176.33,474.33,178.44,456.18,178.44,456.18Z" transform="translate(-69.5 -212.5)"/><path class="cls-16" d="M111.27,477c1.08,2.74,5.81,2.34,4.9-1.66.79,3.49,3.35,4.42,3.8,2.17.37,4.17.45,6.5.45,6.5h-5.35Z" transform="translate(-69.5 -212.5)"/><path class="cls-16" d="M123.51,480.17c-1.93,1.74,12.74-2,15-4.84-2.9,4.36-11.89,10.21-18.08,8.67C121.25,484,123.51,480.17,123.51,480.17Z" transform="translate(-69.5 -212.5)"/><path class="cls-16" d="M262.75,477.55c.5,3,3.91,1.36,4.16-1.55,0,3.16,5.84-1.42,5.76-4.92-.52,6.59.92,10,6.58,4.48s7.17,6.07,0,7.55a96.48,96.48,0,0,1-15.75,1.56Z" transform="translate(-69.5 -212.5)"/><path class="cls-16" d="M510.42,476.92c-.67,2.83,3.07,2.74,3.61,1-.47,1.55,6.14-1.1,9.55-10.74C520,476.23,516,484,516,484l-6.59-.33Z" transform="translate(-69.5 -212.5)"/><path class="cls-17" d="M492,320.57C465.29,300,433.33,288,399,288c-92.75,0-168.16,87.39-170,196h-5c0-110.46,76.11-200,170-200C430.5,284,464.31,297.53,492,320.57Z" transform="translate(-69.5 -212.5)"/><ellipse class="cls-17" cx="307.35" cy="335" rx="24.43" ry="9.6" transform="translate(-211.43 52.94) rotate(-38.66)"/><path class="cls-17" d="M393,284h-4a4,4,0,1,1,0-8h4a4,4,0,0,0,0,8Z" transform="translate(-69.5 -212.5)"/><path class="cls-16" d="M457.1,391.05a4.89,4.89,0,0,1-1-.85,4.61,4.61,0,0,1-.94-5.13A90,90,0,0,0,312.4,484h.11a90,90,0,0,1,143.56-93.8l1,.85,0,0Z" transform="translate(-69.5 -212.5)"/><path class="cls-17" d="M394.4,455.08a7.87,7.87,0,0,0-3.95-1H353.5a5.05,5.05,0,0,0-5.05,5.05V480a7.87,7.87,0,0,0,1,4,8,8,0,0,1-4-7V459a8,8,0,0,1,8-8h34A8,8,0,0,1,394.4,455.08Z" transform="translate(-69.5 -212.5)"/><path class="cls-17" d="M352.17,476l6.82-6.82S349.83,470.25,352.17,476Z" transform="translate(-69.5 -212.5)"/><path class="cls-16" d="M386.38,462a10,10,0,0,0-14,14,10,10,0,1,1,14-14Z" transform="translate(-69.5 -212.5)"/><circle class="cls-17" cx="211.83" cy="140.91" r="3.08"/><path class="cls-17" d="M441.46,459.23c11.54-5.89,33.88-32.91,25.38-57.57-.67,21.68-5.75,35.1-32.88,56.72C439.17,457.33,441.46,459.23,441.46,459.23Z" transform="translate(-69.5 -212.5)"/><path class="cls-16" d="M427.8,467.5c-1-4.67,5.44-15.55,13.66-8.28C438.33,463.5,427.8,467.5,427.8,467.5Z" transform="translate(-69.5 -212.5)"/><polygon class="cls-17" points="384.09 194.63 388.58 182.37 380.3 193.5 384.09 194.63"/><path class="cls-17" d="M464.71,387a5.94,5.94,0,0,0-3.12-.88,6,6,0,0,0-6,6,5.94,5.94,0,0,0,.88,3.12,6,6,0,1,1,8.24-8.24Z" transform="translate(-69.5 -212.5)"/><path class="cls-16" d="M574.14,438.68c.86,4.82.93,14.57.93,14.57l-22-35.46-11-31Z" transform="translate(-69.5 -212.5)"/><rect class="cls-16" x="516.85" y="264.29" width="13.43" height="3.07"/><path class="cls-17" d="M588.8,458.26l.35-5.22c5.35-1.87,13.85,1,13.85,1l-1.25-4-17.26-1.49,1.06,9.73Z" transform="translate(-69.5 -212.5)"/><path class="cls-18" d="M599.85,467.86c0,.18-.05.37-.07.55" transform="translate(-69.5 -212.5)"/><path class="cls-17" d="M593.75,467.86h-4a4,4,0,1,1,0-8h4a4,4,0,0,0,0,8Z" transform="translate(-69.5 -212.5)"/><path class="cls-17" d="M595.75,475.86h-4a4,4,0,1,1,0-8h4a4,4,0,0,0,0,8Z" transform="translate(-69.5 -212.5)"/><path class="cls-17" d="M623.5,484c.13-6.12,5.36-11.65,8.43-12.57s19.26,2.5,21.17,3.6c1.23-3.25-13.85-11.62-25.72-7.88C621.5,470.75,618,484,618,484Z" transform="translate(-69.5 -212.5)"/><path class="cls-17" d="M658,483.25c-.62-3.75,3.13-11.33,5.38-13.29s12-5.59,16.63-5.34,18.21,8,23.42,13.7c-6.17-11.2-16.17-18.61-24.67-18.47s-22,8-22,8L649.63,484Z" transform="translate(-69.5 -212.5)"/><path class="cls-17" d="M702,474.18c3.13-1.56,18.63-8.07,29,0-5.5-8.68-13.18-13-32.59-4C700.13,470.88,702,474.18,702,474.18Z" transform="translate(-69.5 -212.5)"/><path class="cls-13" d="M653.1,475c-3.26,6,42.76,9.47,40.15-8,4.73,4.83,11.92,17,11.92,17H649.63Z" transform="translate(-69.5 -212.5)"/><path class="cls-13" d="M702.29,475.71c2.21,4.46,31.54,4.55,26.71-5.75,6.67,5.2,7.5,14,7.5,14H705.17Z" transform="translate(-69.5 -212.5)"/><path class="cls-13" d="M619,477.19c-1,2.81,29,5.09,34.17-4.38-1.83,5.86-3.54,11.2-3.54,11.2H618Z" transform="translate(-69.5 -212.5)"/><path class="cls-14" d="M433.48,483.42c25-6.92,50.16-52.6,32.22-85.76C493.75,420,486.53,475,482.14,484,472.5,484,433.48,483.42,433.48,483.42Z" transform="translate(-69.5 -212.5)"/></g><g id="lines"><polyline class="cls-19" points="15 271.5 242.9 271.5 412.64 271.5 679.5 271.5"/><path class="cls-19" d="M223,484c0-110.46,76.11-200,170-200s170,89.54,170,200" transform="translate(-69.5 -212.5)"/><path class="cls-19" d="M649,484c2-6.5,7.33-15.55,12.5-18s14-7.5,20-5.5S705.5,471,704,484" transform="translate(-69.5 -212.5)"/><path class="cls-19" d="M698.13,470.37C704,467,718,464.5,724,466.5s12.5,13,12.5,17.5" transform="translate(-69.5 -212.5)"/><path class="cls-19" d="M655.08,472c-4.58-1.52-23.08-8-29.08-3s-8,10.5-8,15" transform="translate(-69.5 -212.5)"/><path class="cls-20" d="M666.5,450c7.17-6.21,12.94-14.83,13.5-25.51" transform="translate(-69.5 -212.5)"/><path class="cls-20" d="M661.88,453.25h-.1" transform="translate(-69.5 -212.5)"/><path class="cls-20" d="M657.19,456.47A48,48,0,0,1,649,460" transform="translate(-69.5 -212.5)"/><path class="cls-20" d="M676.47,401.23c7.46,13.07,22.94,20.71,3.53,49.27" transform="translate(-69.5 -212.5)"/><path class="cls-20" d="M680.06,325.94h0" transform="translate(-69.5 -212.5)"/><path class="cls-20" d="M674.38,396.75c-3.62-10.12-1.12-24.23,21.9-51.17,10-11.67,10.85-28.44,0-39.29a22.24,22.24,0,0,0-31.43,0,17.79,17.79,0,0,0,0,25.15,14.23,14.23,0,0,0,20.11,0,11.38,11.38,0,0,0,0-16.1,9.11,9.11,0,0,0-12.87,0,7.29,7.29,0,0,0,0,10.3,5.78,5.78,0,0,0,5.07,1.62" transform="translate(-69.5 -212.5)"/><path class="cls-20" d="M697,420.36c-1-4.45-3-8.38-4.82-9.86" transform="translate(-69.5 -212.5)"/><path class="cls-20" d="M697.7,426.84a14.15,14.15,0,0,1-1.2,5.66" transform="translate(-69.5 -212.5)"/><path class="cls-20" d="M667.16,473.63a3,3,0,0,1,5.85-1.34" transform="translate(-69.5 -212.5)"/><path class="cls-20" d="M690.3,477.11a3,3,0,0,1,5.79,1.58" transform="translate(-69.5 -212.5)"/><path class="cls-20" d="M632,476.13a2.51,2.51,0,1,1,5-.7" transform="translate(-69.5 -212.5)"/><path class="cls-20" d="M720.52,472.67a2,2,0,1,1,3.7,1.51" transform="translate(-69.5 -212.5)"/><line class="cls-19" x1="516.11" y1="255.98" x2="516.05" y2="255.35"/><path class="cls-19" d="M599.85,467.86c0,.18-.05.37-.07.55" transform="translate(-69.5 -212.5)"/><path class="cls-19" d="M597.75,484s.47-3.52,1.09-8.29" transform="translate(-69.5 -212.5)"/><path class="cls-19" d="M584.85,460,584,450.5c3.75-3.5,16.75-2.75,17.75,0,0,1.18-.4,4.93-.94,9.51" transform="translate(-69.5 -212.5)"/><line class="cls-19" x1="517.5" y1="271.5" x2="516.74" y2="263.06"/><rect class="cls-19" x="512.25" y="247.36" width="22" height="8" rx="4" ry="4"/><rect class="cls-19" x="514.25" y="255.36" width="18" height="8" rx="4" ry="4"/><line class="cls-19" x1="462.36" y1="155.73" x2="514.99" y2="243.41"/><line class="cls-19" x1="512.25" y1="251.36" x2="484.6" y2="207.46"/><path class="cls-19" d="M312.4,484a90,90,0,0,1,142.73-98.93" transform="translate(-69.5 -212.5)"/><path class="cls-19" d="M463.78,393.36A90.1,90.1,0,0,1,482.14,484" transform="translate(-69.5 -212.5)"/><path class="cls-19" d="M463.19,393.86c13,22.12-11.68,56.3-30.59,65" transform="translate(-69.5 -212.5)"/><path class="cls-19" d="M463.35,393.74c20.18,29.58.56,90.26-36.68,90.26" transform="translate(-69.5 -212.5)"/><path class="cls-19" d="M426.72,469c0-.33-.05-.67-.05-1a10,10,0,0,1,5.93-9.13l.17-.08a10,10,0,0,1,13.9,9.21c0,.19,0,.37,0,.56" transform="translate(-69.5 -212.5)"/><path class="cls-19" d="M446.67,468c0,8.75-7.83,16-20,16" transform="translate(-69.5 -212.5)"/><path class="cls-19" d="M442.05,459.58A89.45,89.45,0,0,1,426.72,469" transform="translate(-69.5 -212.5)"/><circle class="cls-19" cx="390.09" cy="176.57" r="6"/><path class="cls-19" d="M459.55,395.07l-.06,12.2a2,2,0,0,1-2.58,1.89l-6.34-1.93a2,2,0,0,1-1.07-3l6.77-10.15" transform="translate(-69.5 -212.5)"/><path class="cls-19" d="M519.17,484c7.83,0,17.17-5.38,15.83-8.44s-11.5-3.7-19,8.44c7.5-12.14,10.67-27.83,7.67-30.67s-17.83,15.5-14.83,30.67c-2-12-9.67-17.05-13.17-16.86S497,484,504.5,484" transform="translate(-69.5 -212.5)"/><rect class="cls-19" x="274.9" y="237.5" width="50" height="34" rx="8" ry="8"/><circle class="cls-19" cx="307.9" cy="254.5" r="10"/><circle class="cls-19" cx="285.9" cy="260.5" r="4"/><line class="cls-19" x1="281.9" y1="244.5" x2="281.91" y2="244.5"/><line class="cls-19" x1="289.89" y1="244.5" x2="289.9" y2="244.5"/><line class="cls-19" x1="310.9" y1="237.5" x2="294.4" y2="221"/><path class="cls-19" d="M236.06,407C185,392.5,168.5,470.5,182,484" transform="translate(-69.5 -212.5)"/><path class="cls-19" d="M183.58,436.33c-12.95,0-32.16,30.42-21.41,47.67" transform="translate(-69.5 -212.5)"/><path class="cls-19" d="M208.3,472.5,196,470.42a4,4,0,0,1-3.32-4.34l2.21-21.94a4,4,0,0,1,4.64-3.54l15.23,2.57A4,4,0,0,1,218,448l-5.1,21.45A4,4,0,0,1,208.3,472.5Z" transform="translate(-69.5 -212.5)"/><line class="cls-20" x1="148.02" y1="237.38" x2="125.16" y2="233.52"/><path class="cls-19" d="M123.75,484c13,0,19.35-12.73,17-15.75-3.5-4.5-19.5,7.75-19.5,15.75,1.08-11.17-4.25-34.5-9.25-33.33s-4.33,25.5,2.5,33.33c-3.07-5.55-12.67-11.5-15.17-8.83S102,484,109.83,484" transform="translate(-69.5 -212.5)"/><path class="cls-19" d="M275.11,484c6.5,0,10.1-5.83,9.6-9.83C282.17,473,274,478,269.5,484c4.47-6,6-25.5-1.33-29.67-7.17,5-7.5,22.5-4.67,29.67-2-3.83-7.5-14.33-10.67,0-1-8.5-10.61-14.5-14.55-13.83-1.11,5.33,1.22,13.83,7.89,13.83" transform="translate(-69.5 -212.5)"/><line class="cls-19" x1="8" y1="271.5" x2="2" y2="271.5"/><line class="cls-19" x1="686.49" y1="271.5" x2="686.5" y2="271.5"/><polyline class="cls-20" points="303.41 263.43 307.8 259.05 311.8 255.05 316.83 250.01"/><polyline class="cls-20" points="299.28 259.56 303.8 255.05 307.8 251.05 312.96 245.88"/><polyline class="cls-20" points="312.25 263.5 307.8 259.05 303.8 255.05 298.9 250.15"/><polyline class="cls-20" points="316.44 259.69 311.8 255.05 307.8 251.05 302.71 245.96"/><rect class="cls-19" x="314.5" y="63.5" width="18" height="8" rx="4" ry="4"/><line class="cls-20" x1="324.9" y1="151.5" x2="324.9" y2="71.5"/><line class="cls-20" x1="237.93" y1="232.78" x2="169.6" y2="202.35"/><line class="cls-20" x1="417.1" y1="230.45" x2="480.2" y2="202.35"/><line class="cls-20" x1="519.3" y1="236.02" x2="520" y2="241.58"/><line class="cls-20" x1="527.5" y1="236.02" x2="527.08" y2="239.75"/><line class="cls-20" x1="137.37" y1="259.76" x2="138.38" y2="254.25"/><line class="cls-20" x1="229.75" y1="226.94" x2="225.88" y2="229.94"/><line class="cls-20" x1="196.67" y1="216.45" x2="196.67" y2="212.09"/><line class="cls-20" x1="192.67" y1="214.85" x2="192.67" y2="210.49"/><line class="cls-20" x1="326.84" y1="133.3" x2="322.96" y2="136.3"/><line class="cls-20" x1="322.96" y1="107.3" x2="326.84" y2="110.3"/><line class="cls-20" x1="434.83" y1="219.5" x2="438.67" y2="223.33"/><path class="cls-19" d="M173.28,441.33a6,6,0,1,1,10.54-5.54" transform="translate(-69.5 -212.5)"/><line class="cls-21" x1="239.36" y1="153.73" x2="235.33" y2="158.35"/><polyline class="cls-21" points="225.82 169.26 229.5 165.04 232.64 161.43"/><polyline class="cls-21" points="225.51 176.92 233.12 168.19 236.28 164.57 239.95 160.35"/><line class="cls-21" x1="229.5" y1="165.04" x2="225.28" y2="161.35"/><polyline class="cls-21" points="238.19 172.62 233.12 168.19 232.06 167.27"/><line class="cls-21" x1="243.28" y1="156.73" x2="243.28" y2="156.72"/><path class="cls-20" d="M554,484a171.32,171.32,0,0,0-2-25.89h0" transform="translate(-69.5 -212.5)"/><path class="cls-20" d="M548,484q0-6.18-.44-12.26" transform="translate(-69.5 -212.5)"/><line class="cls-20" x1="477" y1="252.31" x2="477" y2="252.21"/><path class="cls-20" d="M494,333.62q-4.2-4-8.63-7.72" transform="translate(-69.5 -212.5)"/><path class="cls-20" d="M441.61,299.55a159.46,159.46,0,0,1,37.86,21.6" transform="translate(-69.5 -212.5)"/><path class="cls-19" d="M199.28,414.72C200.88,396,224.41,396,239.1,399" transform="translate(-69.5 -212.5)"/><path class="cls-19" d="M192.53,357.57a30,30,0,1,1,46.55,37.85" transform="translate(-69.5 -212.5)"/><path class="cls-19" d="M200.29,363.88a20,20,0,1,1,31,25.23" transform="translate(-69.5 -212.5)"/><path class="cls-19" d="M208,370.18a10,10,0,0,1,15.52,12.62" transform="translate(-69.5 -212.5)"/><path class="cls-19" d="M239.08,395.42a5,5,0,0,1-7.76-6.31" transform="translate(-69.5 -212.5)"/><path class="cls-19" d="M215.81,376.49a5,5,0,0,1-7.76-6.31" transform="translate(-69.5 -212.5)"/><path class="cls-19" d="M231.32,389.11a25,25,0,1,1-38.8-31.54" transform="translate(-69.5 -212.5)"/><path class="cls-19" d="M231.32,389.11a25,25,0,1,1-38.8-31.54" transform="translate(-69.5 -212.5)"/><path class="cls-19" d="M223.57,382.8a15,15,0,0,1-23.28-18.93" transform="translate(-69.5 -212.5)"/><line class="cls-19" x1="157.38" y1="182.92" x2="159.75" y2="182.92"/><path class="cls-20" d="M330.36,404.87a90.24,90.24,0,0,1,26.4-23.53" transform="translate(-69.5 -212.5)"/><path class="cls-20" d="M326.33,410.68c-.5.78-1,1.56-1.45,2.36" transform="translate(-69.5 -212.5)"/><line class="cls-20" x1="442.67" y1="271.5" x2="447.83" y2="254.5"/><line class="cls-20" x1="437.25" y1="271.5" x2="432.75" y2="265.88"/><line class="cls-20" x1="198" y1="253.63" x2="197.13" y2="271.5"/><line class="cls-20" x1="175.38" y1="266.13" x2="180.25" y2="271.5"/><path class="cls-20" d="M134.38,473.5c-2.25,4-9.5,10-10.62,10.5" transform="translate(-69.5 -212.5)"/><line class="cls-20" x1="44.5" y1="253.25" x2="48.63" y2="271.5"/></g></g></svg>